<?xml version="1.0" encoding="utf-8"?>
<!-- Generator: Adobe Illustrator 28.0.0, SVG Export Plug-In . SVG Version: 6.00 Build 0)  -->
<svg version="1.1" id="Layer_1" xmlns="http://www.w3.org/2000/svg" xmlns:xlink="http://www.w3.org/1999/xlink" x="0px" y="0px"
	 viewBox="0 0 1920 338.4" style="enable-background:new 0 0 1920 338.4;" xml:space="preserve">
<style type="text/css">
	.st0{opacity:0.3;fill:#FFFFFF;}
	.st1{fill:#FFFFFF;}
</style>
<path class="st0" d="M1489.9,338.4c82.7,0,149.7-67,149.7-149.7s-67-149.7-149.7-149.7c-82.7,0-149.7,67-149.7,149.7
	S1407.2,338.4,1489.9,338.4z"/>
<g>
	<path class="st1" d="M146.8,197.2c0,38.2-21.5,59-53.2,59c-25.1,0-49.7-13.1-49.7-55.9V88.1H0v118.7c0,61.3,38.1,85.3,80.1,85.3
		c32.4,0,55.2-12.8,67.5-37.8l5.4,33.4h37.8V88.1h-44V197.2z"/>
	<polygon class="st1" points="281.8,23.5 237.8,23.5 237.8,287.7 399.3,287.7 399.3,246.6 281.8,246.6 	"/>
	<path class="st1" d="M525.5,86.6c-59.9,0-102.7,44.5-102.7,103.1c0,61.7,44.8,102.4,105.8,102.4c47.1,0,84.2-28.2,95-63.6l-39-4.2
		c-8.5,17.1-27,31.6-55.6,31.6c-33.2,0-59.1-21.3-61.8-52.1h161C630.1,128.5,586.5,86.6,525.5,86.6z M467.2,170.7
		c2.3-28.2,26.6-48.7,58.3-48.7c32.8,0,56,20.9,57.2,48.7H467.2z"/>
	<polygon class="st1" points="584.2,0 538,0 507.9,58.7 542.6,58.7 	"/>
	<path class="st1" d="M794.1,88.1l-89.4,83.7c3.1-35.5,2.8-53.7,2.8-148.3h-44v264.2h44c0-43.6-0.4-73.1-2.4-97.4l89,97.4H847
		l-99.8-107.2L847,88.1H794.1z"/>
	<path class="st1" d="M1028.3,126.1v-1.5c-15-26.2-44.1-40.9-74.2-40.9c-61.7,0-101.3,44.4-101.3,103.8
		c0,57.9,38.1,104.7,99.1,104.7c36.3,0,66.3-18.1,77.1-45.5v41.1h44V88.1h-38.2L1028.3,126.1z M962.4,252.3
		c-37.8,0-64.8-26.6-64.8-64.4c0-37.4,27-64,64.8-64c37.4,0,65.9,27.8,65.9,64C1028.3,224.5,999.8,252.3,962.4,252.3z"/>
	<path class="st1" d="M1162.4,119.4l-3.5-31.4H1120v199.6h44V165.9c0-30.8,23.1-44.6,61.7-39.6V88.1
		C1202.2,88.1,1185.3,88.1,1162.4,119.4z"/>
	<path class="st1" d="M1167.7,42.6c-5.1-14.7-23.6-42.6-23.6-42.6h-40.3l45.7,58.7h34.5L1230.1,0h-40.7
		C1189.4,0,1172.8,27.9,1167.7,42.6z"/>
	<path class="st1" d="M1340.2,86.6c-59.9,0-102.7,44.5-102.7,103.1c0,61.7,44.8,102.4,105.8,102.4c47.1,0,84.2-28.2,95-63.6l-39-4.2
		c-8.5,17.1-27,31.6-55.6,31.6c-33.2,0-59.1-21.3-61.8-52.1h161C1444.8,128.5,1401.2,86.6,1340.2,86.6z M1281.8,170.7
		c2.3-28.2,26.6-48.7,58.3-48.7c32.8,0,56,20.9,57.2,48.7H1281.8z"/>
	<path class="st1" d="M1556,189.2c0,59.3,42.7,102.9,106.5,102.9c24.2,0,45.8-7.2,62.3-21.3v-42.2c-15,14.4-34.6,23.9-58.1,23.9
		c-38.1,0-66.9-27-66.9-63.1c0-36.1,28.8-63.4,66.9-63.4c23.5,0,43.1,9.5,58.1,23.9v-42.2c-16.5-14.1-38.1-21.3-62.3-21.3
		C1598.6,86.6,1556,130.3,1556,189.2z"/>
	<polygon class="st1" points="1920,88.1 1757.1,88.1 1757.1,125.7 1851.1,125.7 1752.7,287.7 1917.1,287.7 1917.1,250.1 
		1821.9,250.1 	"/>
</g>
</svg>
